<?xml version="1.0" encoding="utf-8"?>
<svg xmlns="http://www.w3.org/2000/svg" height="128" width="128" viewBox="0 0 128 128">
	<g>
		<path id="path1" transform="rotate(35,64,64) translate(21.2641171693802,16.4) scale(2.975,2.975)  " fill="#000000" d="M11.953,12.805998L11.953,17.262998C12.432,18.134997 13.629,18.869998 14.366001,19.236998 15.102001,18.869998 16.299001,18.134997 16.778001,17.262998L16.778001,12.805998z M9.9529985,10.805998L18.778002,10.805998 18.778002,17.699998 18.696002,17.889997C17.802001,19.957998,15.056001,21.134998,14.745001,21.261998L14.366001,21.417998 13.986001,21.261998C13.676,21.134998,10.928999,19.957998,10.034999,17.889997L9.9529985,17.699998z M15.073494,5.509037L15.001294,5.5219612C14.863564,5.5430565 14.722538,5.5539989 14.579006,5.5539989 14.435475,5.5539989 14.294449,5.5430565 14.156719,5.5219612L14.140519,5.519062 11.114002,10.115999 5.7010612,10.174339 5.6583967,10.282377C5.552846,10.531565,5.4119368,10.762259,5.2420039,10.968135L5.1551604,11.068384 7.5830014,15.907999 4.9214306,20.634786 5.0015154,20.736636C5.1615977,20.950542,5.2916002,21.188194,5.3851891,21.443255L5.419837,21.545424 10.833002,21.862999 13.565604,26.481021 13.587704,26.477063C13.725434,26.455952 13.86646,26.445001 14.009992,26.445 14.201368,26.445001 14.38829,26.464469 14.568882,26.50153L14.655164,26.521498 17.615002,22.024999 22.884315,21.969039 22.917817,21.870251C23.042602,21.53017,23.232123,21.221039,23.471365,20.957876L23.501184,20.926603 21.147002,16.232999 23.857234,11.420656 23.811009,11.367311C23.641076,11.161494,23.500167,10.930879,23.394616,10.681796L23.362155,10.599631 17.896002,10.278999z M14.579006,0C16.110006,0 17.356006,1.2460003 17.356006,2.7769985 17.356006,3.399374 17.150367,3.9743824 16.803522,4.4377937L16.781245,4.4661217 19.076003,8.343998 23.365646,8.5955315 23.394616,8.5222034C23.816819,7.5258751 24.804756,6.8250008 25.953007,6.8250008 27.484007,6.8250008 28.730005,8.0710011 28.730005,9.6019993 28.730005,11.132999 27.484007,12.379 25.953007,12.379 25.857319,12.379 25.762745,12.374132 25.669518,12.364633L25.62369,12.35879 23.411003,16.287999 25.302077,20.056821 25.38334,20.05062C25.430597,20.048215 25.478163,20.046999 25.526007,20.046999 27.057007,20.046999 28.303007,21.292998 28.303007,22.823998 28.303007,24.355998 27.057007,25.600997 25.526007,25.600997 24.4256,25.600997 23.472425,24.957829 23.023309,24.027203L22.996379,23.967732 18.700003,24.012999 16.302004,27.656466 16.31202,27.670539C16.61178,28.11383 16.786999,28.647877 16.786999,29.222001 16.786999,30.754006 15.540998,32.000001 14.009992,32.000001 12.478986,32.000001 11.232999,30.754006 11.232999,29.222001 11.232999,28.600033 11.438636,28.025101 11.785479,27.561636L11.840125,27.492137 9.6530017,23.796999 5.3060994,23.542079 5.2796969,23.6004C4.8305802,24.531316 3.8774056,25.175002 2.7769995,25.175001 1.2459993,25.175002 0,23.929002 0,22.397002 0,20.866002 1.2459993,19.620002 2.7769995,19.620002 2.8726873,19.620002 2.9672613,19.624869 3.0604877,19.634369L3.1807222,19.649697 5.3180013,15.853999 3.3680449,11.966814 3.2426739,11.976381C3.1954165,11.978786 3.147851,11.980002 3.1000071,11.980002 1.5690069,11.980002 0.32300758,10.734002 0.32300758,9.2020016 0.32300758,7.6710033 1.5690069,6.4250031 3.1000071,6.4250031 4.2482567,6.4250031 5.2361937,7.1258774 5.6583967,8.1222057L5.6789961,8.174345 10.029002,8.1279984 12.410986,4.509634 12.35449,4.4377937C12.007645,3.9743824 11.802007,3.399374 11.802007,2.7769985 11.802007,1.2460003 13.048007,0 14.579006,0z" />
	</g>
</svg>
